<svg width="186" height="50" viewBox="0 0 186 50" fill="none" xmlns="http://www.w3.org/2000/svg">
<path d="M85.15 19.825C85.15 20.325 85.0417 20.7 84.825 20.95C84.625 21.2 84.2917 21.325 83.825 21.325C83.7917 21.675 83.7167 22.2833 83.6 23.15C83.4333 24.3167 83.3417 24.9667 83.325 25.1C81.8417 36.15 78.75 41.675 74.05 41.675C72.6667 41.675 71.5833 41.2833 70.8 40.5C70.0333 39.7167 69.65 38.7333 69.65 37.55C69.65 35.4333 70.55 33.5667 72.35 31.95C74.15 30.3167 76.5167 28.9667 79.45 27.9C79.6333 26.7167 79.775 25.6583 79.875 24.725L80.325 20.95C79.325 20.85 78.3917 20.8 77.525 20.8C75.2083 20.8 73.5 21.025 72.4 21.475C71.3 21.925 70.75 22.6583 70.75 23.675C70.75 24.175 70.9167 24.7167 71.25 25.3C71.35 25.4667 71.4 25.6417 71.4 25.825C71.4 26.175 71.2167 26.4917 70.85 26.775C70.5 27.0417 70.1167 27.175 69.7 27.175C69.1667 27.175 68.7583 26.95 68.475 26.5C68.0083 25.7333 67.775 24.8417 67.775 23.825C67.775 19.825 71.275 17.825 78.275 17.825C80.3083 17.825 82.125 18.025 83.725 18.425C84.675 18.6583 85.15 19.125 85.15 19.825ZM74.375 39C75.1917 39 76.0083 38.3833 76.825 37.15C77.6417 35.9167 78.3583 33.7583 78.975 30.675C74.9083 32.4583 72.875 34.6417 72.875 37.225C72.875 37.7917 73.0083 38.2333 73.275 38.55C73.5417 38.85 73.9083 39 74.375 39ZM99.9061 31.325C100.123 31.325 100.289 31.4333 100.406 31.65C100.523 31.8667 100.581 32.1417 100.581 32.475C100.581 33.275 100.339 33.75 99.8561 33.9C98.8561 34.25 97.7561 34.45 96.5561 34.5C96.2394 35.9 95.6144 37.025 94.6811 37.875C93.7477 38.7083 92.6894 39.125 91.5061 39.125C90.5061 39.125 89.6477 38.8833 88.9311 38.4C88.2311 37.9167 87.6977 37.275 87.3311 36.475C86.9644 35.675 86.7811 34.8083 86.7811 33.875C86.7811 32.6083 87.0227 31.4833 87.5061 30.5C87.9894 29.5 88.6561 28.725 89.5061 28.175C90.3561 27.6083 91.2977 27.325 92.3311 27.325C93.5977 27.325 94.6144 27.7667 95.3811 28.65C96.1644 29.5167 96.6227 30.5917 96.7561 31.875C97.5394 31.825 98.4727 31.6583 99.5561 31.375C99.6894 31.3417 99.8061 31.325 99.9061 31.325ZM91.7061 36.475C92.2394 36.475 92.6977 36.2583 93.0811 35.825C93.4811 35.3917 93.7477 34.7667 93.8811 33.95C93.3644 33.6 92.9644 33.1417 92.6811 32.575C92.4144 32.0083 92.2811 31.4083 92.2811 30.775C92.2811 30.5083 92.3061 30.2417 92.3561 29.975H92.2311C91.5644 29.975 91.0061 30.3 90.5561 30.95C90.1227 31.5833 89.9061 32.4833 89.9061 33.65C89.9061 34.5667 90.0811 35.2667 90.4311 35.75C90.7977 36.2333 91.2227 36.475 91.7061 36.475ZM114.235 31.325C114.452 31.325 114.619 31.4333 114.735 31.65C114.852 31.8667 114.91 32.1417 114.91 32.475C114.91 32.8917 114.852 33.2167 114.735 33.45C114.619 33.6667 114.435 33.8167 114.185 33.9C113.185 34.25 112.085 34.45 110.885 34.5C110.552 35.8833 109.919 37 108.985 37.85C108.069 38.7 107.052 39.125 105.935 39.125C104.252 39.125 103.027 38.4833 102.26 37.2C101.494 35.9167 101.11 34.0583 101.11 31.625C101.11 29.475 101.377 27.1417 101.91 24.625C102.444 22.0917 103.219 19.9417 104.235 18.175C105.269 16.3917 106.494 15.5 107.91 15.5C108.677 15.5 109.294 15.8333 109.76 16.5C110.227 17.15 110.46 18 110.46 19.05C110.46 20.4167 110.202 21.775 109.685 23.125C109.169 24.475 108.31 25.8917 107.11 27.375C108.227 27.4583 109.135 27.925 109.835 28.775C110.535 29.6083 110.952 30.6417 111.085 31.875C111.869 31.825 112.802 31.6583 113.885 31.375C113.985 31.3417 114.102 31.325 114.235 31.325ZM107.335 17.975C107.002 17.975 106.635 18.475 106.235 19.475C105.852 20.4583 105.494 21.8 105.16 23.5C104.827 25.2 104.577 27.0583 104.41 29.075C105.51 27.0583 106.385 25.2833 107.035 23.75C107.702 22.2 108.035 20.825 108.035 19.625C108.035 19.0917 107.969 18.6833 107.835 18.4C107.719 18.1167 107.552 17.975 107.335 17.975ZM106.035 36.475C106.552 36.475 107.01 36.2583 107.41 35.825C107.81 35.3917 108.077 34.7667 108.21 33.95C107.694 33.6 107.294 33.1417 107.01 32.575C106.744 32.0083 106.61 31.4083 106.61 30.775C106.61 30.5417 106.644 30.225 106.71 29.825H106.635C105.952 29.825 105.377 30.1667 104.91 30.85C104.46 31.5167 104.235 32.4167 104.235 33.55C104.235 34.5 104.41 35.225 104.76 35.725C105.127 36.225 105.552 36.475 106.035 36.475ZM122.227 39.2C120.01 39.2 118.235 38.7833 116.902 37.95C115.568 37.1 114.902 35.8083 114.902 34.075C114.902 33.1583 115.06 32.4583 115.377 31.975C115.693 31.4917 116.16 31.25 116.777 31.25C117.227 31.25 117.593 31.3667 117.877 31.6C118.16 31.8333 118.302 32.1333 118.302 32.5C118.302 32.8333 118.277 33.125 118.227 33.375C118.227 33.4417 118.21 33.5583 118.177 33.725C118.16 33.8917 118.152 34.0667 118.152 34.25C118.152 35 118.527 35.5583 119.277 35.925C120.043 36.2917 121.11 36.475 122.477 36.475C123.893 36.475 125.002 36.225 125.802 35.725C126.602 35.2083 127.002 34.4917 127.002 33.575C127.002 33.0083 126.818 32.525 126.452 32.125C126.085 31.7083 125.627 31.3667 125.077 31.1C124.527 30.8167 123.752 30.475 122.752 30.075C121.468 29.575 120.418 29.1 119.602 28.65C118.802 28.2 118.11 27.5917 117.527 26.825C116.96 26.0417 116.677 25.075 116.677 23.925C116.677 22.725 116.993 21.6583 117.627 20.725C118.277 19.7917 119.202 19.0667 120.402 18.55C121.618 18.0333 123.043 17.775 124.677 17.775C125.893 17.775 127.01 17.9583 128.027 18.325C129.043 18.675 129.852 19.2167 130.452 19.95C131.068 20.6833 131.377 21.5833 131.377 22.65C131.377 23.7 131.218 24.4917 130.902 25.025C130.585 25.5583 130.118 25.825 129.502 25.825C129.068 25.825 128.702 25.6917 128.402 25.425C128.118 25.1583 127.977 24.8417 127.977 24.475C127.977 24.1583 128.002 23.8667 128.052 23.6C128.102 23.1 128.127 22.7833 128.127 22.65C128.127 21.95 127.785 21.4167 127.102 21.05C126.418 20.6833 125.568 20.5 124.552 20.5C123.118 20.5 122.018 20.7667 121.252 21.3C120.502 21.8167 120.127 22.55 120.127 23.5C120.127 24.1333 120.318 24.675 120.702 25.125C121.102 25.575 121.593 25.95 122.177 26.25C122.76 26.55 123.577 26.9083 124.627 27.325C125.893 27.8417 126.91 28.3083 127.677 28.725C128.443 29.1417 129.093 29.7083 129.627 30.425C130.177 31.1417 130.452 32.025 130.452 33.075C130.452 35.0417 129.702 36.5583 128.202 37.625C126.718 38.675 124.727 39.2 122.227 39.2ZM145.992 33.425C146.208 33.425 146.375 33.525 146.492 33.725C146.625 33.925 146.692 34.2 146.692 34.55C146.692 35.2167 146.533 35.7333 146.217 36.1C145.5 36.9833 144.717 37.7083 143.867 38.275C143.017 38.8417 142.042 39.125 140.942 39.125C137.542 39.125 135.842 36.7333 135.842 31.95C135.842 31.2167 135.867 30.475 135.917 29.725H134.942C134.442 29.725 134.1 29.6333 133.917 29.45C133.75 29.2667 133.667 28.975 133.667 28.575C133.667 27.6417 134.042 27.175 134.792 27.175H136.217C136.5 25.3417 136.933 23.6667 137.517 22.15C138.1 20.6333 138.8 19.425 139.617 18.525C140.45 17.625 141.342 17.175 142.292 17.175C142.992 17.175 143.542 17.4833 143.942 18.1C144.342 18.7167 144.542 19.4917 144.542 20.425C144.542 23.0083 143.458 25.2583 141.292 27.175H144.092C144.358 27.175 144.55 27.2333 144.667 27.35C144.783 27.4667 144.842 27.6833 144.842 28C144.842 29.15 143.9 29.725 142.017 29.725H138.967C138.933 30.5583 138.917 31.2083 138.917 31.675C138.917 33.4083 139.117 34.625 139.517 35.325C139.933 36.025 140.583 36.375 141.467 36.375C142.183 36.375 142.817 36.1583 143.367 35.725C143.917 35.2917 144.567 34.6417 145.317 33.775C145.517 33.5417 145.742 33.425 145.992 33.425ZM141.617 19.575C141.367 19.575 141.083 19.8917 140.767 20.525C140.467 21.1417 140.175 22.0083 139.892 23.125C139.625 24.225 139.4 25.45 139.217 26.8C140.2 25.95 140.933 25 141.417 23.95C141.917 22.8833 142.167 21.9167 142.167 21.05C142.167 20.0667 141.983 19.575 141.617 19.575ZM150.231 39.125C149.198 39.125 148.373 38.75 147.756 38C147.139 37.25 146.831 36.2667 146.831 35.05C146.831 33.7167 147.139 32.4583 147.756 31.275C148.373 30.075 149.189 29.1167 150.206 28.4C151.239 27.6667 152.331 27.3 153.481 27.3C153.848 27.3 154.089 27.375 154.206 27.525C154.339 27.6583 154.448 27.9083 154.531 28.275C154.881 28.2083 155.248 28.175 155.631 28.175C156.448 28.175 156.856 28.4667 156.856 29.05C156.856 29.4 156.731 30.2333 156.481 31.55C156.098 33.4667 155.906 34.8 155.906 35.55C155.906 35.8 155.964 36 156.081 36.15C156.214 36.3 156.381 36.375 156.581 36.375C156.898 36.375 157.281 36.175 157.731 35.775C158.181 35.3583 158.789 34.6917 159.556 33.775C159.756 33.5417 159.981 33.425 160.231 33.425C160.448 33.425 160.614 33.525 160.731 33.725C160.864 33.925 160.931 34.2 160.931 34.55C160.931 35.2167 160.773 35.7333 160.456 36.1C159.773 36.95 159.048 37.6667 158.281 38.25C157.514 38.8333 156.773 39.125 156.056 39.125C155.506 39.125 154.998 38.9417 154.531 38.575C154.081 38.1917 153.739 37.675 153.506 37.025C152.639 38.425 151.548 39.125 150.231 39.125ZM151.131 36.6C151.498 36.6 151.848 36.3833 152.181 35.95C152.514 35.5167 152.756 34.9417 152.906 34.225L153.831 29.625C153.131 29.6417 152.481 29.9083 151.881 30.425C151.298 30.925 150.831 31.5917 150.481 32.425C150.131 33.2583 149.956 34.1417 149.956 35.075C149.956 35.5917 150.056 35.975 150.256 36.225C150.473 36.475 150.764 36.6 151.131 36.6ZM165.524 29.725C165.491 30.5583 165.474 31.2083 165.474 31.675C165.474 32.875 165.533 33.8167 165.649 34.5C165.783 35.1667 165.991 35.65 166.274 35.95C166.574 36.2333 166.983 36.375 167.499 36.375C167.766 36.375 168.083 36.2917 168.449 36.125C168.816 35.9583 169.149 35.7417 169.449 35.475C169.633 35.3083 169.816 35.225 169.999 35.225C170.199 35.225 170.358 35.3417 170.474 35.575C170.608 35.7917 170.674 36.0583 170.674 36.375C170.674 36.6917 170.608 37 170.474 37.3C170.358 37.6 170.174 37.85 169.924 38.05C169.058 38.7667 168.074 39.125 166.974 39.125C165.391 39.125 164.233 38.4667 163.499 37.15C162.766 35.8167 162.399 34.0833 162.399 31.95C162.399 31.2167 162.424 30.475 162.474 29.725H161.499C160.999 29.725 160.658 29.6333 160.474 29.45C160.308 29.2667 160.224 28.975 160.224 28.575C160.224 27.6417 160.599 27.175 161.349 27.175H162.774C163.058 25.3417 163.491 23.6667 164.074 22.15C164.658 20.6333 165.358 19.425 166.174 18.525C167.008 17.625 167.899 17.175 168.849 17.175C169.549 17.175 170.099 17.4833 170.499 18.1C170.899 18.7167 171.099 19.4917 171.099 20.425C171.099 23.0083 170.016 25.2583 167.849 27.175H170.649C170.916 27.175 171.108 27.2333 171.224 27.35C171.341 27.4667 171.399 27.6833 171.399 28C171.399 29.15 170.458 29.725 168.574 29.725H165.524ZM168.174 19.575C167.924 19.575 167.641 19.8917 167.324 20.525C167.024 21.1417 166.733 22.0083 166.449 23.125C166.183 24.225 165.958 25.45 165.774 26.8C166.758 25.95 167.491 25 167.974 23.95C168.474 22.8833 168.724 21.9167 168.724 21.05C168.724 20.0667 168.541 19.575 168.174 19.575Z" fill="#2563EB"/>
<rect width="50" height="50" rx="10" fill="#2563EB"/>
<path d="M26.043 29.2695V9.5625H31.8828V29.2695C31.8828 31.1706 31.4661 32.8047 30.6328 34.1719C29.7995 35.526 28.6602 36.5677 27.2148 37.2969C25.7826 38.026 24.168 38.3906 22.3711 38.3906C20.5091 38.3906 18.862 38.0781 17.4297 37.4531C15.9974 36.8281 14.8711 35.8711 14.0508 34.582C13.2305 33.2799 12.8203 31.6328 12.8203 29.6406H18.6992C18.6992 30.6823 18.8424 31.5091 19.1289 32.1211C19.4284 32.7331 19.8516 33.1693 20.3984 33.4297C20.9453 33.6901 21.6029 33.8203 22.3711 33.8203C23.1133 33.8203 23.7578 33.6445 24.3047 33.293C24.8516 32.9414 25.2747 32.4271 25.5742 31.75C25.8867 31.0729 26.043 30.2461 26.043 29.2695Z" fill="white"/>
</svg>
